<svg width="303" height="87" viewBox="0 0 303 87" fill="none" xmlns="http://www.w3.org/2000/svg">
<path fill-rule="evenodd" clip-rule="evenodd" d="M85.1109 1.59493C86.5359 2.38657 87.7878 3.44577 88.7953 4.71203C89.8028 5.97829 90.546 7.4268 90.9825 8.97481C91.419 10.5228 91.5402 12.14 91.3393 13.734C91.1383 15.3279 90.6191 16.8675 89.8113 18.2646L59.9088 70.014C59.4377 67.8173 58.509 65.7396 57.181 63.9113C55.8529 62.0829 54.1542 60.5432 52.1911 59.3886C50.2281 58.234 41.1403 52.8878 41.1403 52.8878L68.117 6.20049C68.9242 4.80303 70.0043 3.57523 71.2955 2.58722C72.5867 1.59921 74.0637 0.870351 75.6422 0.442283C77.2207 0.0142143 78.8698 -0.104678 80.4951 0.0923966C82.1205 0.289472 83.6904 0.798653 85.115 1.59085L85.1109 1.59493ZM24.936 55.0276C24.936 56.6333 24.6135 58.2232 23.987 59.7067C23.3604 61.1902 22.442 62.5381 21.2842 63.6735C20.1265 64.8089 18.752 65.7095 17.2393 66.324C15.7266 66.9385 14.1053 67.2547 12.468 67.2547C10.8307 67.2547 9.20941 66.9385 7.69672 66.324C6.18403 65.7095 4.80956 64.8089 3.6518 63.6735C2.49404 62.5381 1.57565 61.1902 0.949072 59.7067C0.322495 58.2232 -2.4398e-08 56.6333 0 55.0276C4.9274e-08 51.7847 1.31359 48.6747 3.6518 46.3817C5.99001 44.0886 9.1613 42.8004 12.468 42.8004C15.7747 42.8004 18.946 44.0886 21.2842 46.3817C23.6225 48.6747 24.936 51.7847 24.936 55.0276ZM15.4853 71.0614C17.8047 70.6425 20.0066 69.7444 21.9448 68.4268C23.8831 67.1091 25.5133 65.4022 26.7271 63.4192C27.9409 61.4362 28.7107 59.2227 28.9851 56.9256C29.2596 54.6285 29.0325 52.3004 28.319 50.096L50.055 62.8815C52.891 64.5499 54.9351 67.2549 55.7375 70.4013C56.5399 73.5477 56.0349 76.8779 54.3336 79.6592C53.4912 81.0363 52.3804 82.2373 51.0647 83.1934C49.7491 84.1496 48.2542 84.8423 46.6656 85.2319C43.4572 86.0188 40.0614 85.5236 37.2254 83.8551L15.4853 71.0614Z" fill="#7E00C3"/>
<path d="M126.22 60.9177C123.548 60.9177 121.133 60.4603 118.974 59.5454C116.851 58.6304 115.168 57.313 113.924 55.593C112.679 53.8729 112.039 51.8419 112.002 49.4997H120.236C120.346 51.0733 120.895 52.3176 121.883 53.2325C122.908 54.1474 124.299 54.6049 126.055 54.6049C127.848 54.6049 129.257 54.184 130.282 53.3423C131.307 52.464 131.819 51.3295 131.819 49.9389C131.819 48.8044 131.471 47.8712 130.776 47.1393C130.081 46.4073 129.202 45.8401 128.141 45.4375C127.116 44.9984 125.689 44.5226 123.859 44.0103C121.371 43.2784 119.34 42.5647 117.766 41.8694C116.229 41.1375 114.893 40.0579 113.759 38.6307C112.661 37.1668 112.112 35.2272 112.112 32.8119C112.112 30.5429 112.679 28.5667 113.814 26.8833C114.948 25.1999 116.54 23.919 118.59 23.0407C120.639 22.1258 122.981 21.6683 125.616 21.6683C129.568 21.6683 132.771 22.6381 135.223 24.5777C137.711 26.4807 139.083 29.1522 139.34 32.5923H130.886C130.813 31.2748 130.245 30.1952 129.184 29.3535C128.159 28.4752 126.787 28.0361 125.067 28.0361C123.567 28.0361 122.359 28.4203 121.444 29.1888C120.566 29.9574 120.127 31.0735 120.127 32.5374C120.127 33.5621 120.456 34.4221 121.115 35.1174C121.81 35.7761 122.652 36.3251 123.64 36.7642C124.665 37.1668 126.092 37.6426 127.922 38.1915C130.41 38.9234 132.441 39.6553 134.015 40.3873C135.588 41.1192 136.943 42.2171 138.077 43.6809C139.211 45.1448 139.779 47.0661 139.779 49.4448C139.779 51.4942 139.248 53.3972 138.187 55.1538C137.126 56.9104 135.57 58.3194 133.521 59.3807C131.471 60.4054 129.038 60.9177 126.22 60.9177ZM175.151 30.122V60.5334H167.411V56.6909C166.423 58.0083 165.124 59.0513 163.514 59.8198C161.94 60.5517 160.22 60.9177 158.354 60.9177C155.975 60.9177 153.871 60.4237 152.041 59.4356C150.211 58.4109 148.765 56.9287 147.704 54.9891C146.679 53.0129 146.167 50.6708 146.167 47.9627V30.122H153.852V46.8648C153.852 49.2801 154.456 51.1465 155.664 52.464C156.871 53.7449 158.518 54.3853 160.604 54.3853C162.727 54.3853 164.392 53.7449 165.6 52.464C166.807 51.1465 167.411 49.2801 167.411 46.8648V30.122H175.151ZM190.419 34.8429C191.407 33.2327 192.688 31.9702 194.262 31.0552C195.872 30.1403 197.702 29.6829 199.751 29.6829V37.7523H197.72C195.305 37.7523 193.475 38.3196 192.231 39.4541C191.023 40.5885 190.419 42.5647 190.419 45.3826V60.5334H182.734V30.122H190.419V34.8429ZM217.608 53.4521L225.293 30.122H233.472L222.219 60.5334H212.887L201.689 30.122H209.923L217.608 53.4521ZM266.059 44.669C266.059 45.7669 265.986 46.755 265.84 47.6333H243.608C243.791 49.8291 244.559 51.5491 245.913 52.7934C247.267 54.0376 248.932 54.6598 250.909 54.6598C253.763 54.6598 255.794 53.4338 257.002 50.9819H265.291C264.413 53.9095 262.729 56.3249 260.241 58.2279C257.752 60.0943 254.696 61.0275 251.073 61.0275C248.146 61.0275 245.511 60.3871 243.169 59.1062C240.863 57.7887 239.051 55.9406 237.734 53.5619C236.453 51.1831 235.813 48.4384 235.813 45.3277C235.813 42.1805 236.453 39.4175 237.734 37.0387C239.015 34.66 240.808 32.8302 243.114 31.5493C245.419 30.2684 248.072 29.628 251.073 29.628C253.964 29.628 256.544 30.2501 258.813 31.4944C261.119 32.7387 262.894 34.5136 264.138 36.8191C265.419 39.0881 266.059 41.7047 266.059 44.669ZM258.1 42.4732C258.063 40.4971 257.35 38.9234 255.959 37.7523C254.568 36.5447 252.867 35.9408 250.854 35.9408C248.951 35.9408 247.341 36.5264 246.023 37.6974C244.742 38.8319 243.955 40.4239 243.663 42.4732H258.1ZM299.939 44.669C299.939 45.7669 299.866 46.755 299.72 47.6333H277.488C277.671 49.8291 278.439 51.5491 279.793 52.7934C281.147 54.0376 282.812 54.6598 284.789 54.6598C287.643 54.6598 289.674 53.4338 290.882 50.9819H299.171C298.293 53.9095 296.609 56.3249 294.121 58.2279C291.632 60.0943 288.576 61.0275 284.953 61.0275C282.026 61.0275 279.391 60.3871 277.049 59.1062C274.743 57.7887 272.932 55.9406 271.614 53.5619C270.333 51.1831 269.693 48.4384 269.693 45.3277C269.693 42.1805 270.333 39.4175 271.614 37.0387C272.895 34.66 274.688 32.8302 276.994 31.5493C279.299 30.2684 281.952 29.628 284.953 29.628C287.844 29.628 290.424 30.2501 292.693 31.4944C294.999 32.7387 296.774 34.5136 298.018 36.8191C299.299 39.0881 299.939 41.7047 299.939 44.669ZM291.98 42.4732C291.943 40.4971 291.23 38.9234 289.839 37.7523C288.448 36.5447 286.747 35.9408 284.734 35.9408C282.831 35.9408 281.221 36.5264 279.903 37.6974C278.622 38.8319 277.835 40.4239 277.543 42.4732H291.98Z" fill="black"/>
<path d="M224.268 82.5334V70.5716H225.647V74.9872H225.764C225.865 74.8314 226.005 74.6329 226.184 74.3914C226.367 74.1461 226.628 73.9281 226.967 73.7373C227.309 73.5426 227.773 73.4452 228.357 73.4452C229.112 73.4452 229.778 73.6341 230.354 74.0118C230.931 74.3895 231.38 74.9249 231.704 75.618C232.027 76.3111 232.188 77.1288 232.188 78.0711C232.188 79.0212 232.027 79.8448 231.704 80.5418C231.38 81.2349 230.933 81.7722 230.36 82.1538C229.788 82.5315 229.128 82.7204 228.38 82.7204C227.804 82.7204 227.342 82.625 226.996 82.4342C226.649 82.2395 226.383 82.0195 226.196 81.7741C226.009 81.5249 225.865 81.3186 225.764 81.155H225.6V82.5334H224.268ZM225.623 78.0478C225.623 78.7253 225.723 79.323 225.921 79.8409C226.12 80.3548 226.41 80.7579 226.791 81.0499C227.173 81.338 227.64 81.4821 228.193 81.4821C228.77 81.4821 229.25 81.3303 229.636 81.0265C230.025 80.7189 230.317 80.3062 230.512 79.7883C230.711 79.2665 230.81 78.6863 230.81 78.0478C230.81 77.4169 230.713 76.8484 230.518 76.3423C230.327 75.8322 230.037 75.4291 229.648 75.1332C229.262 74.8334 228.777 74.6835 228.193 74.6835C227.633 74.6835 227.161 74.8256 226.78 75.1099C226.398 75.3902 226.11 75.7835 225.915 76.2897C225.721 76.792 225.623 77.378 225.623 78.0478ZM234.863 85.8977C234.63 85.8977 234.421 85.8783 234.238 85.8393C234.055 85.8043 233.929 85.7692 233.859 85.7342L234.209 84.5193C234.544 84.605 234.84 84.6361 235.097 84.6128C235.354 84.5894 235.582 84.4745 235.78 84.2682C235.983 84.0657 236.168 83.7366 236.335 83.2811L236.592 82.5802L233.275 73.5621H234.77L237.246 80.7111H237.34L239.816 73.5621H241.312L237.503 83.8418C237.332 84.3051 237.12 84.6887 236.867 84.9924C236.614 85.3 236.32 85.5278 235.985 85.6758C235.654 85.8237 235.28 85.8977 234.863 85.8977ZM258.037 76.5525C258.037 77.8141 257.809 78.9044 257.353 79.8233C256.898 80.7423 256.273 81.451 255.478 81.9494C254.684 82.4478 253.777 82.697 252.757 82.697C251.736 82.697 250.829 82.4478 250.035 81.9494C249.24 81.451 248.615 80.7423 248.16 79.8233C247.704 78.9044 247.476 77.8141 247.476 76.5525C247.476 75.2909 247.704 74.2006 248.16 73.2817C248.615 72.3628 249.24 71.6541 250.035 71.1557C250.829 70.6573 251.736 70.408 252.757 70.408C253.777 70.408 254.684 70.6573 255.478 71.1557C256.273 71.6541 256.898 72.3628 257.353 73.2817C257.809 74.2006 258.037 75.2909 258.037 76.5525ZM256.635 76.5525C256.635 75.5168 256.462 74.6426 256.115 73.93C255.772 73.2175 255.307 72.6782 254.719 72.3121C254.135 71.9461 253.481 71.7631 252.757 71.7631C252.032 71.7631 251.376 71.9461 250.788 72.3121C250.204 72.6782 249.739 73.2175 249.392 73.93C249.05 74.6426 248.878 75.5168 248.878 76.5525C248.878 77.5883 249.05 78.4624 249.392 79.175C249.739 79.8876 250.204 80.4269 250.788 80.7929C251.376 81.1589 252.032 81.3419 252.757 81.3419C253.481 81.3419 254.135 81.1589 254.719 80.7929C255.307 80.4269 255.772 79.8876 256.115 79.175C256.462 78.4624 256.635 77.5883 256.635 76.5525ZM264.187 73.5621V74.7302H259.538V73.5621H264.187ZM260.893 71.4127H262.271V79.9635C262.271 80.3529 262.328 80.6449 262.44 80.8396C262.557 81.0304 262.705 81.1589 262.884 81.2251C263.067 81.2874 263.26 81.3186 263.463 81.3186C263.614 81.3186 263.739 81.3108 263.836 81.2952C263.934 81.2757 264.012 81.2602 264.07 81.2485L264.35 82.4867C264.257 82.5218 264.127 82.5568 263.959 82.5919C263.792 82.6308 263.579 82.6503 263.322 82.6503C262.933 82.6503 262.551 82.5665 262.178 82.3991C261.808 82.2317 261.5 81.9766 261.255 81.634C261.013 81.2913 260.893 80.8591 260.893 80.3373V71.4127ZM272.454 75.5713L271.216 75.9217C271.138 75.7153 271.023 75.5148 270.872 75.3201C270.724 75.1215 270.521 74.958 270.264 74.8295C270.007 74.701 269.678 74.6368 269.277 74.6368C268.728 74.6368 268.271 74.7633 267.905 75.0164C267.542 75.2656 267.361 75.583 267.361 75.9684C267.361 76.3111 267.486 76.5817 267.735 76.7803C267.984 76.9789 268.374 77.1444 268.903 77.2768L270.235 77.6039C271.037 77.7985 271.635 78.0964 272.028 78.4975C272.421 78.8947 272.618 79.4067 272.618 80.0336C272.618 80.5476 272.47 81.0071 272.174 81.412C271.882 81.817 271.473 82.1363 270.948 82.3699C270.422 82.6035 269.811 82.7204 269.114 82.7204C268.199 82.7204 267.441 82.5218 266.842 82.1246C266.242 81.7274 265.862 81.1472 265.703 80.3841L267.011 80.057C267.135 80.5398 267.371 80.9019 267.718 81.1433C268.068 81.3848 268.526 81.5055 269.09 81.5055C269.733 81.5055 270.243 81.3692 270.62 81.0966C271.002 80.8202 271.193 80.4892 271.193 80.1037C271.193 79.7922 271.084 79.5313 270.866 79.321C270.648 79.1069 270.313 78.9472 269.861 78.8421L268.366 78.4916C267.544 78.297 266.941 77.9952 266.555 77.5863C266.174 77.1736 265.983 76.6577 265.983 76.0385C265.983 75.5323 266.125 75.0845 266.409 74.6952C266.697 74.3058 267.089 74.0001 267.583 73.7782C268.082 73.5562 268.646 73.4452 269.277 73.4452C270.165 73.4452 270.862 73.6399 271.368 74.0293C271.878 74.4187 272.24 74.9327 272.454 75.5713ZM280.347 78.8655V73.5621H281.725V82.5334H280.347V81.0149H280.253C280.043 81.4704 279.716 81.8579 279.272 82.1772C278.828 82.4926 278.267 82.6503 277.59 82.6503C277.029 82.6503 276.531 82.5276 276.095 82.2823C275.659 82.0331 275.316 81.6593 275.067 81.1609C274.818 80.6586 274.693 80.0258 274.693 79.2626V73.5621H276.071V79.1692C276.071 79.8233 276.254 80.3451 276.62 80.7345C276.99 81.1239 277.461 81.3186 278.034 81.3186C278.376 81.3186 278.725 81.231 279.079 81.0557C279.438 80.8805 279.737 80.6118 279.979 80.2497C280.224 79.8876 280.347 79.4262 280.347 78.8655ZM285.535 79.2626L285.511 77.5571H285.792L289.717 73.5621H291.422L287.24 77.7908H287.124L285.535 79.2626ZM284.25 82.5334V70.5716H285.628V82.5334H284.25ZM289.95 82.5334L286.446 78.0945L287.427 77.1366L291.703 82.5334H289.95ZM295.836 82.7437C295.268 82.7437 294.752 82.6366 294.289 82.4225C293.825 82.2044 293.457 81.891 293.185 81.4821C292.912 81.0694 292.776 80.571 292.776 79.9869C292.776 79.4729 292.877 79.0563 293.08 78.737C293.282 78.4138 293.553 78.1607 293.891 77.9777C294.23 77.7947 294.604 77.6584 295.013 77.5688C295.426 77.4754 295.84 77.4014 296.257 77.3469C296.802 77.2768 297.244 77.2242 297.583 77.1892C297.925 77.1502 298.175 77.086 298.33 76.9964C298.49 76.9069 298.57 76.7511 298.57 76.5292V76.4824C298.57 75.9061 298.412 75.4584 298.097 75.1391C297.785 74.8198 297.312 74.6601 296.678 74.6601C296.019 74.6601 295.504 74.8042 295.13 75.0923C294.756 75.3805 294.493 75.6881 294.341 76.0152L293.033 75.5479C293.267 75.0028 293.578 74.5783 293.967 74.2746C294.361 73.967 294.789 73.7529 295.252 73.6321C295.72 73.5075 296.179 73.4452 296.631 73.4452C296.919 73.4452 297.25 73.4803 297.624 73.5504C298.001 73.6166 298.365 73.7548 298.716 73.9651C299.07 74.1753 299.364 74.4927 299.598 74.9171C299.832 75.3415 299.948 75.91 299.948 76.6226V82.5334H298.57V81.3186H298.5C298.406 81.5133 298.251 81.7216 298.033 81.9435C297.815 82.1655 297.524 82.3543 297.162 82.5101C296.8 82.6658 296.358 82.7437 295.836 82.7437ZM296.047 81.5055C296.592 81.5055 297.051 81.3984 297.425 81.1842C297.803 80.9701 298.087 80.6936 298.278 80.3548C298.473 80.0161 298.57 79.6598 298.57 79.286V78.0244C298.512 78.0945 298.383 78.1587 298.184 78.2171C297.99 78.2716 297.764 78.3203 297.507 78.3632C297.254 78.4021 297.007 78.4371 296.765 78.4683C296.528 78.4955 296.335 78.5189 296.187 78.5384C295.829 78.5851 295.494 78.661 295.182 78.7662C294.875 78.8674 294.625 79.0212 294.435 79.2276C294.248 79.4301 294.154 79.7065 294.154 80.057C294.154 80.5359 294.331 80.898 294.686 81.1433C295.044 81.3848 295.498 81.5055 296.047 81.5055Z" fill="black"/>
</svg>
