<svg width="1777" height="637" viewBox="0 0 1777 637" fill="none" xmlns="http://www.w3.org/2000/svg">
<g filter="url(#filter0_d_504_11)">
<mask id="mask0_504_11" style="mask-type:luminance" maskUnits="userSpaceOnUse" x="412" y="0" width="296" height="288">
<path d="M412 0H707.47V287.906H412V0Z" fill="white"/>
</mask>
<g mask="url(#mask0_504_11)">
<path d="M605.647 0.00512695C629.077 0.00512695 649.236 10.9052 662.734 26.0207C678.731 43.8462 690.267 60.8888 697.879 84.4354C707.453 114.185 707.453 143.814 681.585 176.092C659.464 203.734 598.57 249.08 555.993 268.532C513.415 287.923 479.4 266.665 456.862 229.93C436.287 196.326 424.156 167.721 418.507 138.574C412.025 104.911 425.583 78.1723 469.112 50.7717C506.992 26.8638 567.47 5.42504 592.505 1.14933C597.024 0.366455 601.365 0.00512695 605.647 0.00512695Z" fill="url(#paint0_radial_504_11)"/>
</g>
</g>
<g filter="url(#filter1_d_504_11)">
<path d="M522.096 294.067C527.151 286.419 533.989 283.769 545.288 286.841C555.219 289.491 569.015 297.319 572.464 300.752C577.459 305.81 579.184 310.929 578.292 318.939C577.578 325.443 575.973 330.802 572.94 336.885C568.48 345.737 562.236 351.157 554.03 351.278C545.823 351.518 528.697 349.531 518.885 345.135C509.132 340.739 507.943 330.26 511.273 318.878C514.247 308.52 517.636 300.692 522.096 294.067Z" fill="#BA0D2B"/>
</g>
<g filter="url(#filter2_d_504_11)">
<path fill-rule="evenodd" clip-rule="evenodd" d="M848.391 283.95C848.391 316.65 828.589 352 785.119 352C741.649 352 721.847 316.65 721.847 283.95C721.847 251.19 741.649 215.9 785.119 215.9C828.589 215.9 848.391 251.19 848.391 283.95ZM838.519 283.95C838.519 255.526 824.545 222.344 785.119 222.344C745.752 222.344 731.778 255.526 731.778 283.95C731.778 312.314 745.752 345.556 785.119 345.556C824.545 345.556 838.519 312.314 838.519 283.95Z" fill="#1F6FB8"/>
</g>
<g filter="url(#filter3_d_504_11)">
<path d="M909.222 255.163C909.222 256.91 908.151 257.813 906.01 257.813H891.917V346.218C891.917 351.999 888.884 351.999 887.635 351.999C886.327 351.999 883.354 351.999 883.354 346.218V257.813H869.201C867.119 257.813 866.049 256.91 866.049 255.163C866.049 253.437 867.1 252.574 869.201 252.574H883.354V226.197C883.354 220.175 886.327 220.175 887.635 220.175C888.884 220.175 891.917 220.175 891.917 226.197V252.574H906.01C908.151 252.574 909.222 253.417 909.222 255.163Z" fill="#1F6FB8"/>
</g>
<g filter="url(#filter4_d_504_11)">
<path d="M977.668 307.496C972.257 305.449 956.32 299.668 950.195 297.439C937.172 292.682 931.879 285.576 931.879 275.639C931.879 260.704 950.611 251.37 967.916 251.37C978.738 251.37 990.394 253.538 1000.5 259.44C1005.26 262.15 1001.4 267.69 997.054 265.402C989.383 261.307 983.793 256.609 968.51 256.609C955.249 256.609 941.453 262.812 941.453 274.676C941.453 281.541 946.805 286.72 955.011 289.55C957.568 290.454 975.944 297.078 979.095 298.162C996.34 304.365 1006.33 311.17 1006.33 324.961C1006.33 341.16 990.334 352 966.548 352C946.508 352 933.306 343.027 927.657 337.306C923.137 332.729 928.727 327.911 932.533 331.705C936.577 335.8 947.162 346.761 967.202 346.761C983.853 346.761 996.697 337.607 996.697 325.563C996.697 314.06 986.707 310.809 977.668 307.496Z" fill="#1F6FB8"/>
</g>
<g filter="url(#filter5_d_504_11)">
<path d="M1118.42 257.15V319.599C1118.42 339.292 1102.25 351.998 1077.33 351.998C1052.35 351.998 1036.18 339.292 1036.18 319.599V257.15C1036.18 251.369 1039.15 251.369 1040.46 251.369C1041.77 251.369 1044.74 251.369 1044.74 257.15V316.107C1044.74 324.056 1045.81 330.68 1049.38 335.618C1054.49 342.845 1064.13 346.759 1077.33 346.759C1090.71 346.759 1100.52 342.845 1105.58 335.799C1109.14 330.801 1109.8 324.176 1109.8 316.107V257.15C1109.8 251.369 1112.83 251.369 1114.14 251.369C1115.45 251.369 1118.42 251.369 1118.42 257.15Z" fill="#1F6FB8"/>
</g>
<g filter="url(#filter6_d_504_11)">
<path d="M1159.93 300.75V346.217C1159.93 351.999 1156.96 351.999 1155.65 351.999C1154.34 351.999 1151.37 351.999 1151.37 346.217V211.021C1151.37 205.239 1154.34 205.239 1155.65 205.239C1156.96 205.239 1159.93 205.239 1159.93 211.021V297.92L1221.24 252.272C1224.15 250.104 1225.46 251.489 1226 252.152C1226.47 252.814 1227.42 254.5 1224.51 256.728C1224.51 256.668 1169.92 297.98 1169.92 297.98L1225.82 343.447C1230.22 346.94 1228.32 349.289 1227.54 350.312C1226.77 351.276 1224.99 353.504 1220.53 350.071L1159.93 300.75Z" fill="#1F6FB8"/>
</g>
<g filter="url(#filter7_d_504_11)">
<path fill-rule="evenodd" clip-rule="evenodd" d="M1335 257.151V346.219C1335 352 1331.97 352 1330.72 352C1329.41 352 1326.5 352 1326.5 346.219V325.743C1321.98 338.51 1310.8 352 1289.45 352C1254.72 352 1242.35 326.045 1242.35 301.655C1242.35 277.446 1256.98 251.37 1289.03 251.37C1309.37 251.37 1321.8 264.438 1326.38 277.747V257.151C1326.38 251.551 1329.41 251.37 1330.72 251.37C1331.97 251.37 1335 251.671 1335 257.151ZM1326.38 301.655C1326.38 280.879 1316.68 256.609 1289.45 256.609C1263.76 256.609 1251.57 279.253 1251.57 301.655C1251.57 322.491 1261.98 346.761 1289.45 346.761C1316.68 346.761 1326.38 322.491 1326.38 301.655Z" fill="#1F6FB8"/>
</g>
<g filter="url(#filter8_d_504_11)">
<path d="M254.982 507.546C254.982 512.314 254.187 516.913 252.597 521.341C250.894 525.656 248.283 529.403 244.763 532.582C241.243 535.875 236.815 538.429 231.478 540.246C226.028 542.176 219.613 543.141 212.233 543.141C210.756 543.141 208.769 543.028 206.272 542.801C205.477 542.687 204.455 542.574 203.206 542.46C201.957 542.233 201.162 542.12 200.821 542.12V591H185.493V478.422C189.467 476.491 193.952 474.959 198.948 473.823C203.83 472.688 209.11 472.12 214.787 472.12C221.713 472.12 227.731 472.972 232.841 474.675C238.064 476.605 242.208 479.046 245.274 481.998C248.68 485.405 251.121 489.152 252.597 493.239C254.187 497.667 254.982 502.436 254.982 507.546ZM239.824 507.205C239.824 499.143 237.893 492.842 234.033 488.3C230.172 483.758 223.757 481.487 214.787 481.487C211.949 481.487 209.451 481.714 207.293 482.169C204.341 482.736 202.184 483.304 200.821 483.872V532.752C202.184 532.866 204.001 533.036 206.272 533.263C208.769 533.49 210.756 533.604 212.233 533.604C217.228 533.604 221.543 532.923 225.176 531.56C228.583 530.311 231.421 528.438 233.692 525.94C235.85 523.669 237.439 520.887 238.461 517.594C239.369 514.188 239.824 510.725 239.824 507.205ZM306.67 484.383V591H291.001V484.383H266.305V473.823H331.365V484.383H306.67ZM472.966 532.412C472.966 540.587 472.172 548.478 470.582 556.085C468.879 563.579 466.324 569.938 462.918 575.161C459.398 580.611 454.97 584.869 449.633 587.934C444.41 591.114 438.052 592.703 430.558 592.703C423.064 592.703 416.706 591.114 411.483 587.934C406.146 584.869 401.775 580.611 398.368 575.161C394.849 569.938 392.294 563.579 390.704 556.085C389.001 548.705 388.149 540.814 388.149 532.412C388.149 523.782 389.001 515.834 390.704 508.567C392.18 501.301 394.735 494.942 398.368 489.492C401.775 484.269 406.146 480.011 411.483 476.719C416.706 473.653 423.064 472.12 430.558 472.12C437.938 472.12 444.297 473.653 449.633 476.719C454.97 480.011 459.398 484.269 462.918 489.492C466.324 494.942 468.879 501.301 470.582 508.567C472.172 516.175 472.966 524.123 472.966 532.412ZM455.935 550.806C456.73 545.242 457.127 538.997 457.127 532.071C457.127 525.145 456.73 518.9 455.935 513.336C455.14 507.773 453.664 502.55 451.507 497.667C449.463 493.126 446.738 489.492 443.332 486.767C439.812 484.156 435.554 482.85 430.558 482.85C425.562 482.85 421.304 484.156 417.784 486.767C414.378 489.492 411.653 493.126 409.609 497.667C407.679 502.095 406.26 507.318 405.351 513.336C404.443 519.695 403.989 525.94 403.989 532.071C403.989 538.202 404.443 544.447 405.351 550.806C406.26 556.937 407.679 562.217 409.609 566.645C411.653 571.3 414.378 574.877 417.784 577.375C421.191 580.1 425.448 581.462 430.558 581.462C435.667 581.462 439.925 580.1 443.332 577.375C446.738 574.877 449.463 571.3 451.507 566.645C453.664 561.876 455.14 556.596 455.935 550.806ZM530.438 590.319C528.054 591.341 525.045 591.852 521.412 591.852C514.826 591.852 509.546 589.865 505.572 585.891C501.485 581.917 499.441 576.183 499.441 568.689V508.567H488.882V499.2H499.441V478.081L514.429 473.483V499.2H530.438V508.567H514.429V568.689C514.429 572.663 515.394 575.785 517.324 578.056C519.254 580.327 522.093 581.462 525.84 581.462C527.884 581.462 529.417 581.235 530.438 580.781V590.319ZM599.976 565.623C599.976 569.484 599.238 572.947 597.762 576.012C596.286 579.191 594.129 582.087 591.29 584.698C588.679 587.196 585.386 589.127 581.412 590.489C577.665 591.965 573.407 592.703 568.638 592.703C563.869 592.703 559.384 592.135 555.183 591C550.528 589.865 546.781 588.332 543.943 586.401L548.2 576.864C551.039 578.681 554.048 579.986 557.227 580.781C560.633 581.689 563.926 582.144 567.105 582.144C572.442 582.144 576.757 580.611 580.049 577.545C583.229 574.707 584.818 570.96 584.818 566.304C584.818 562.557 583.853 559.548 581.923 557.278C580.106 555.007 577.722 553.133 574.77 551.657C572.158 550.295 569.036 548.875 565.402 547.399C562.11 546.037 558.987 544.334 556.035 542.29C553.196 540.473 550.812 537.975 548.882 534.796C546.951 531.617 545.986 527.529 545.986 522.533C545.986 519.013 546.668 515.721 548.03 512.655C549.506 509.362 551.436 506.694 553.821 504.65C556.319 502.493 559.328 500.733 562.848 499.37C566.367 498.121 570.171 497.497 574.259 497.497C583.342 497.497 591.006 499.598 597.251 503.799L593.334 512.655C590.836 511.065 588.168 509.76 585.329 508.738C582.036 507.829 579.028 507.375 576.302 507.375C570.966 507.375 567.049 508.795 564.551 511.633C562.053 514.472 560.804 517.878 560.804 521.852C560.804 525.258 561.769 528.04 563.699 530.197C565.402 532.014 567.843 533.774 571.023 535.477C574.543 537.294 577.665 538.77 580.39 539.905C583.91 541.268 587.089 542.971 589.928 545.015C592.88 547.059 595.264 549.67 597.081 552.849C599.011 556.142 599.976 560.4 599.976 565.623ZM685.299 585.891C681.325 587.934 676.726 589.524 671.503 590.659C665.713 592.022 659.808 592.703 653.791 592.703C642.663 592.703 634.318 590.262 628.754 585.38C623.077 580.611 620.238 573.06 620.238 562.728V499.2H635.226V563.239C635.226 576.069 641.471 582.484 653.961 582.484C656.572 582.484 659.581 582.2 662.988 581.633C666.167 581.065 668.608 580.327 670.311 579.419V499.2H685.299V585.891ZM761.5 591L725.393 544.163H725.053V591H710.406V457.303H725.053V542.29H725.393L759.456 499.2H775.977L739.189 542.801L779.383 591H761.5ZM853.685 586.231C850.051 588.048 845.623 589.581 840.4 590.83C834.836 592.079 829.102 592.703 823.198 592.703C812.298 592.703 803.726 590.376 797.481 585.72C791.349 581.065 788.284 574.139 788.284 564.942C788.284 559.378 789.589 554.609 792.201 550.635C794.812 546.661 798.389 543.425 802.931 540.927C807.927 538.202 813.377 536.102 819.281 534.626C825.185 533.15 831.998 532.071 839.719 531.39V525.769C839.719 519.411 838.072 514.756 834.78 511.803C831.6 508.965 826.718 507.546 820.133 507.546C816.159 507.546 812.128 508.057 808.04 509.078C803.839 510.327 800.206 511.747 797.14 513.336L793.563 504.139C798.105 501.982 802.477 500.392 806.678 499.37C811.901 498.121 816.84 497.497 821.495 497.497C831.487 497.497 839.378 499.881 845.169 504.65C850.846 509.419 853.685 516.97 853.685 527.302V586.231ZM839.719 539.224C828.024 540.587 818.94 543.141 812.468 546.888C805.883 550.635 802.59 556.54 802.59 564.601C802.59 570.846 804.464 575.615 808.21 578.908C811.957 582.314 817.407 584.017 824.561 584.017C827.172 584.017 830.011 583.733 833.076 583.166C835.234 582.711 837.448 581.973 839.719 580.951V539.224ZM926.476 591V473.823H942.145V591H926.476ZM1019.63 591V527.643C1019.63 520.717 1018.1 515.55 1015.03 512.144C1011.85 508.738 1006.52 507.035 999.022 507.035C993.004 507.035 987.611 508.057 982.842 510.1V591H967.854V503.969C972.51 501.925 977.335 500.336 982.331 499.2C987.327 498.065 992.891 497.497 999.022 497.497C1011.51 497.497 1020.54 500.052 1026.1 505.161C1031.78 510.498 1034.62 517.992 1034.62 527.643V591H1019.63ZM1124.4 586.231C1121.34 588.048 1117.31 589.581 1112.31 590.83C1106.98 592.079 1101.36 592.703 1095.45 592.703C1088.98 592.703 1083.19 591.568 1078.08 589.297C1073.08 587.026 1068.88 583.96 1065.48 580.1C1062.07 576.239 1059.51 571.414 1057.81 565.623C1056.11 559.946 1055.26 553.701 1055.26 546.888C1055.26 540.189 1056.11 533.831 1057.81 527.813C1059.51 521.909 1062.07 516.743 1065.48 512.314C1068.77 508 1072.91 504.537 1077.91 501.925C1082.79 499.427 1088.64 498.178 1095.45 498.178C1096.93 498.178 1099.25 498.292 1102.43 498.519C1104.59 498.859 1106.98 499.37 1109.59 500.052V457.303H1124.4V586.231ZM1109.59 508.738C1107.09 508.057 1105.22 507.602 1103.97 507.375C1101.24 507.148 1099.25 507.035 1098.01 507.035C1092.78 507.035 1088.41 508.057 1084.89 510.1C1081.37 512.258 1078.53 515.096 1076.38 518.616C1074.1 522.136 1072.57 526.223 1071.78 530.879C1070.76 535.534 1070.24 540.36 1070.24 545.356C1070.24 550.806 1070.76 555.802 1071.78 560.343C1072.57 564.885 1074.1 568.802 1076.38 572.095C1078.31 575.388 1080.97 577.999 1084.38 579.93C1087.67 581.86 1091.65 582.825 1096.3 582.825C1099.6 582.825 1102.21 582.598 1104.14 582.144C1106.07 581.803 1107.88 581.178 1109.59 580.27V508.738ZM1217.63 545.015C1217.63 552.168 1216.89 558.527 1215.41 564.09C1213.94 569.767 1211.72 574.763 1208.77 579.078C1205.82 583.393 1202.07 586.742 1197.53 589.127C1192.99 591.511 1187.59 592.703 1181.35 592.703C1175.1 592.703 1169.71 591.511 1165.17 589.127C1160.63 586.742 1156.88 583.393 1153.93 579.078C1150.86 574.763 1148.65 569.767 1147.29 564.09C1145.81 558.527 1145.07 552.168 1145.07 545.015C1145.07 538.089 1145.81 531.73 1147.29 525.94C1148.65 520.262 1150.86 515.267 1153.93 510.952C1156.77 506.751 1160.51 503.458 1165.17 501.074C1169.82 498.689 1175.22 497.497 1181.35 497.497C1187.59 497.497 1192.99 498.689 1197.53 501.074C1202.18 503.458 1205.93 506.751 1208.77 510.952C1211.72 515.267 1213.94 520.262 1215.41 525.94C1216.89 531.73 1217.63 538.089 1217.63 545.015ZM1201.62 559.151C1202.3 554.496 1202.64 549.67 1202.64 544.674C1202.64 539.678 1202.3 534.853 1201.62 530.197C1200.82 525.769 1199.63 521.738 1198.04 518.105C1196.34 514.699 1194.12 511.974 1191.4 509.93C1188.56 508 1185.21 507.035 1181.35 507.035C1177.49 507.035 1174.14 508 1171.3 509.93C1168.46 512.087 1166.3 514.812 1164.83 518.105C1163.12 521.738 1161.93 525.769 1161.25 530.197C1160.46 534.512 1160.06 539.338 1160.06 544.674C1160.06 550.011 1160.46 554.836 1161.25 559.151C1161.93 563.806 1163.12 567.837 1164.83 571.243C1166.3 574.65 1168.46 577.432 1171.3 579.589C1174.02 581.633 1177.37 582.655 1181.35 582.655C1185.32 582.655 1188.67 581.633 1191.4 579.589C1194.12 577.545 1196.34 574.763 1198.04 571.243C1199.52 567.837 1200.71 563.806 1201.62 559.151ZM1290.07 591V527.643C1290.07 520.717 1288.54 515.55 1285.47 512.144C1282.29 508.738 1276.96 507.035 1269.46 507.035C1263.45 507.035 1258.05 508.057 1253.28 510.1V591H1238.3V503.969C1242.95 501.925 1247.78 500.336 1252.77 499.2C1257.77 498.065 1263.33 497.497 1269.46 497.497C1281.95 497.497 1290.98 500.052 1296.54 505.161C1302.22 510.498 1305.06 517.992 1305.06 527.643V591H1290.07ZM1340.18 550.976C1340.86 560.4 1343.58 567.951 1348.35 573.628C1352.89 579.191 1359.59 581.973 1368.45 581.973C1372.65 581.973 1376.79 581.462 1380.88 580.44C1384.85 579.419 1388.15 578.113 1390.76 576.523L1394.68 586.231C1391.38 588.048 1387.3 589.581 1382.41 590.83C1377.19 592.079 1372.02 592.703 1366.91 592.703C1353.74 592.703 1343.58 588.445 1336.43 579.93C1329.28 571.527 1325.7 559.832 1325.7 544.845C1325.7 537.691 1326.55 531.163 1328.25 525.258C1329.96 519.468 1332.4 514.472 1335.58 510.271C1338.87 506.07 1342.79 502.89 1347.33 500.733C1351.76 498.576 1356.92 497.497 1362.83 497.497C1373.73 497.497 1382.36 501.074 1388.72 508.227C1394.85 515.38 1397.91 526.223 1397.91 540.757V542.46L1340.18 550.976ZM1383.44 535.988C1383.32 526.905 1381.56 519.695 1378.16 514.358C1374.86 509.362 1369.64 506.864 1362.49 506.864C1358.74 506.864 1355.45 507.716 1352.61 509.419C1349.54 511.236 1347.1 513.62 1345.28 516.572C1343.24 519.865 1341.82 523.555 1341.03 527.643C1340 531.957 1339.49 536.726 1339.49 541.949V542.801L1383.44 535.988ZM1469.51 565.623C1469.51 569.484 1468.78 572.947 1467.3 576.012C1465.82 579.191 1463.67 582.087 1460.83 584.698C1458.22 587.196 1454.92 589.127 1450.95 590.489C1447.2 591.965 1442.95 592.703 1438.18 592.703C1433.41 592.703 1428.92 592.135 1424.72 591C1420.07 589.865 1416.32 588.332 1413.48 586.401L1417.74 576.864C1420.58 578.681 1423.59 579.986 1426.77 580.781C1430.17 581.689 1433.46 582.144 1436.64 582.144C1441.98 582.144 1446.3 580.611 1449.59 577.545C1452.77 574.707 1454.36 570.96 1454.36 566.304C1454.36 562.557 1453.39 559.548 1451.46 557.278C1449.64 555.007 1447.26 553.133 1444.31 551.657C1441.7 550.295 1438.57 548.875 1434.94 547.399C1431.65 546.037 1428.53 544.334 1425.57 542.29C1422.74 540.473 1420.35 537.975 1418.42 534.796C1416.49 531.617 1415.52 527.529 1415.52 522.533C1415.52 519.013 1416.21 515.721 1417.57 512.655C1419.04 509.362 1420.98 506.694 1423.36 504.65C1425.86 502.493 1428.87 500.733 1432.39 499.37C1435.91 498.121 1439.71 497.497 1443.8 497.497C1452.88 497.497 1460.54 499.598 1466.79 503.799L1462.87 512.655C1460.37 511.065 1457.71 509.76 1454.87 508.738C1451.58 507.829 1448.57 507.375 1445.84 507.375C1440.5 507.375 1436.59 508.795 1434.09 511.633C1431.59 514.472 1430.34 517.878 1430.34 521.852C1430.34 525.258 1431.31 528.04 1433.24 530.197C1434.94 532.014 1437.38 533.774 1440.56 535.477C1444.08 537.294 1447.2 538.77 1449.93 539.905C1453.45 541.268 1456.63 542.971 1459.47 545.015C1462.42 547.059 1464.8 549.67 1466.62 552.849C1468.55 556.142 1469.51 560.4 1469.51 565.623ZM1507.32 473.312C1507.32 475.697 1506.47 477.627 1504.76 479.103C1502.95 480.806 1500.79 481.658 1498.29 481.658C1495.79 481.658 1493.69 480.806 1491.99 479.103C1490.17 477.627 1489.27 475.697 1489.27 473.312C1489.27 471.041 1490.17 469.054 1491.99 467.351C1493.81 465.762 1495.91 464.967 1498.29 464.967C1500.68 464.967 1502.83 465.762 1504.76 467.351C1506.47 469.054 1507.32 471.041 1507.32 473.312ZM1490.8 591V499.2H1505.79V591H1490.8ZM1591.83 586.231C1588.19 588.048 1583.77 589.581 1578.54 590.83C1572.98 592.079 1567.25 592.703 1561.34 592.703C1550.44 592.703 1541.87 590.376 1535.62 585.72C1529.49 581.065 1526.43 574.139 1526.43 564.942C1526.43 559.378 1527.73 554.609 1530.34 550.635C1532.96 546.661 1536.53 543.425 1541.07 540.927C1546.07 538.202 1551.52 536.102 1557.42 534.626C1563.33 533.15 1570.14 532.071 1577.86 531.39V525.769C1577.86 519.411 1576.22 514.756 1572.92 511.803C1569.74 508.965 1564.86 507.546 1558.28 507.546C1554.3 507.546 1550.27 508.057 1546.18 509.078C1541.98 510.327 1538.35 511.747 1535.28 513.336L1531.71 504.139C1536.25 501.982 1540.62 500.392 1544.82 499.37C1550.04 498.121 1554.98 497.497 1559.64 497.497C1569.63 497.497 1577.52 499.881 1583.31 504.65C1588.99 509.419 1591.83 516.97 1591.83 527.302V586.231ZM1577.86 539.224C1566.17 540.587 1557.08 543.141 1550.61 546.888C1544.03 550.635 1540.73 556.54 1540.73 564.601C1540.73 570.846 1542.61 575.615 1546.35 578.908C1550.1 582.314 1555.55 584.017 1562.7 584.017C1565.32 584.017 1568.15 583.733 1571.22 583.166C1573.38 582.711 1575.59 581.973 1577.86 580.951V539.224Z" fill="black"/>
</g>
<defs>
<filter id="filter0_d_504_11" x="412.974" y="0.00512695" width="294.778" height="283.851" filterUnits="userSpaceOnUse" color-interpolation-filters="sRGB">
<feFlood flood-opacity="0" result="BackgroundImageFix"/>
<feColorMatrix in="SourceAlpha" type="matrix" values="0 0 0 0 0 0 0 0 0 0 0 0 0 0 0 0 0 0 127 0" result="hardAlpha"/>
<feOffset dy="4"/>
<feGaussianBlur stdDeviation="2"/>
<feComposite in2="hardAlpha" operator="out"/>
<feColorMatrix type="matrix" values="0 0 0 0 0 0 0 0 0 0 0 0 0 0 0 0 0 0 0.25 0"/>
<feBlend mode="normal" in2="BackgroundImageFix" result="effect1_dropShadow_504_11"/>
<feBlend mode="normal" in="SourceGraphic" in2="effect1_dropShadow_504_11" result="shape"/>
</filter>
<filter id="filter1_d_504_11" x="505.597" y="285.59" width="76.9199" height="73.7078" filterUnits="userSpaceOnUse" color-interpolation-filters="sRGB">
<feFlood flood-opacity="0" result="BackgroundImageFix"/>
<feColorMatrix in="SourceAlpha" type="matrix" values="0 0 0 0 0 0 0 0 0 0 0 0 0 0 0 0 0 0 127 0" result="hardAlpha"/>
<feOffset dy="4"/>
<feGaussianBlur stdDeviation="2"/>
<feComposite in2="hardAlpha" operator="out"/>
<feColorMatrix type="matrix" values="0 0 0 0 0 0 0 0 0 0 0 0 0 0 0 0 0 0 0.25 0"/>
<feBlend mode="normal" in2="BackgroundImageFix" result="effect1_dropShadow_504_11"/>
<feBlend mode="normal" in="SourceGraphic" in2="effect1_dropShadow_504_11" result="shape"/>
</filter>
<filter id="filter2_d_504_11" x="717.847" y="215.9" width="134.544" height="144.1" filterUnits="userSpaceOnUse" color-interpolation-filters="sRGB">
<feFlood flood-opacity="0" result="BackgroundImageFix"/>
<feColorMatrix in="SourceAlpha" type="matrix" values="0 0 0 0 0 0 0 0 0 0 0 0 0 0 0 0 0 0 127 0" result="hardAlpha"/>
<feOffset dy="4"/>
<feGaussianBlur stdDeviation="2"/>
<feComposite in2="hardAlpha" operator="out"/>
<feColorMatrix type="matrix" values="0 0 0 0 0 0 0 0 0 0 0 0 0 0 0 0 0 0 0.25 0"/>
<feBlend mode="normal" in2="BackgroundImageFix" result="effect1_dropShadow_504_11"/>
<feBlend mode="normal" in="SourceGraphic" in2="effect1_dropShadow_504_11" result="shape"/>
</filter>
<filter id="filter3_d_504_11" x="862.049" y="220.175" width="51.173" height="139.824" filterUnits="userSpaceOnUse" color-interpolation-filters="sRGB">
<feFlood flood-opacity="0" result="BackgroundImageFix"/>
<feColorMatrix in="SourceAlpha" type="matrix" values="0 0 0 0 0 0 0 0 0 0 0 0 0 0 0 0 0 0 127 0" result="hardAlpha"/>
<feOffset dy="4"/>
<feGaussianBlur stdDeviation="2"/>
<feComposite in2="hardAlpha" operator="out"/>
<feColorMatrix type="matrix" values="0 0 0 0 0 0 0 0 0 0 0 0 0 0 0 0 0 0 0.25 0"/>
<feBlend mode="normal" in2="BackgroundImageFix" result="effect1_dropShadow_504_11"/>
<feBlend mode="normal" in="SourceGraphic" in2="effect1_dropShadow_504_11" result="shape"/>
</filter>
<filter id="filter4_d_504_11" x="921.972" y="251.37" width="88.3579" height="108.63" filterUnits="userSpaceOnUse" color-interpolation-filters="sRGB">
<feFlood flood-opacity="0" result="BackgroundImageFix"/>
<feColorMatrix in="SourceAlpha" type="matrix" values="0 0 0 0 0 0 0 0 0 0 0 0 0 0 0 0 0 0 127 0" result="hardAlpha"/>
<feOffset dy="4"/>
<feGaussianBlur stdDeviation="2"/>
<feComposite in2="hardAlpha" operator="out"/>
<feColorMatrix type="matrix" values="0 0 0 0 0 0 0 0 0 0 0 0 0 0 0 0 0 0 0.25 0"/>
<feBlend mode="normal" in2="BackgroundImageFix" result="effect1_dropShadow_504_11"/>
<feBlend mode="normal" in="SourceGraphic" in2="effect1_dropShadow_504_11" result="shape"/>
</filter>
<filter id="filter5_d_504_11" x="1032.18" y="251.369" width="90.24" height="108.629" filterUnits="userSpaceOnUse" color-interpolation-filters="sRGB">
<feFlood flood-opacity="0" result="BackgroundImageFix"/>
<feColorMatrix in="SourceAlpha" type="matrix" values="0 0 0 0 0 0 0 0 0 0 0 0 0 0 0 0 0 0 127 0" result="hardAlpha"/>
<feOffset dy="4"/>
<feGaussianBlur stdDeviation="2"/>
<feComposite in2="hardAlpha" operator="out"/>
<feColorMatrix type="matrix" values="0 0 0 0 0 0 0 0 0 0 0 0 0 0 0 0 0 0 0.25 0"/>
<feBlend mode="normal" in2="BackgroundImageFix" result="effect1_dropShadow_504_11"/>
<feBlend mode="normal" in="SourceGraphic" in2="effect1_dropShadow_504_11" result="shape"/>
</filter>
<filter id="filter6_d_504_11" x="1147.37" y="205.239" width="85.2531" height="154.76" filterUnits="userSpaceOnUse" color-interpolation-filters="sRGB">
<feFlood flood-opacity="0" result="BackgroundImageFix"/>
<feColorMatrix in="SourceAlpha" type="matrix" values="0 0 0 0 0 0 0 0 0 0 0 0 0 0 0 0 0 0 127 0" result="hardAlpha"/>
<feOffset dy="4"/>
<feGaussianBlur stdDeviation="2"/>
<feComposite in2="hardAlpha" operator="out"/>
<feColorMatrix type="matrix" values="0 0 0 0 0 0 0 0 0 0 0 0 0 0 0 0 0 0 0.25 0"/>
<feBlend mode="normal" in2="BackgroundImageFix" result="effect1_dropShadow_504_11"/>
<feBlend mode="normal" in="SourceGraphic" in2="effect1_dropShadow_504_11" result="shape"/>
</filter>
<filter id="filter7_d_504_11" x="1238.35" y="251.37" width="100.65" height="108.63" filterUnits="userSpaceOnUse" color-interpolation-filters="sRGB">
<feFlood flood-opacity="0" result="BackgroundImageFix"/>
<feColorMatrix in="SourceAlpha" type="matrix" values="0 0 0 0 0 0 0 0 0 0 0 0 0 0 0 0 0 0 127 0" result="hardAlpha"/>
<feOffset dy="4"/>
<feGaussianBlur stdDeviation="2"/>
<feComposite in2="hardAlpha" operator="out"/>
<feColorMatrix type="matrix" values="0 0 0 0 0 0 0 0 0 0 0 0 0 0 0 0 0 0 0.25 0"/>
<feBlend mode="normal" in2="BackgroundImageFix" result="effect1_dropShadow_504_11"/>
<feBlend mode="normal" in="SourceGraphic" in2="effect1_dropShadow_504_11" result="shape"/>
</filter>
<filter id="filter8_d_504_11" x="181.493" y="457.303" width="1414.34" height="143.4" filterUnits="userSpaceOnUse" color-interpolation-filters="sRGB">
<feFlood flood-opacity="0" result="BackgroundImageFix"/>
<feColorMatrix in="SourceAlpha" type="matrix" values="0 0 0 0 0 0 0 0 0 0 0 0 0 0 0 0 0 0 127 0" result="hardAlpha"/>
<feOffset dy="4"/>
<feGaussianBlur stdDeviation="2"/>
<feComposite in2="hardAlpha" operator="out"/>
<feColorMatrix type="matrix" values="0 0 0 0 0 0 0 0 0 0 0 0 0 0 0 0 0 0 0.25 0"/>
<feBlend mode="normal" in2="BackgroundImageFix" result="effect1_dropShadow_504_11"/>
<feBlend mode="normal" in="SourceGraphic" in2="effect1_dropShadow_504_11" result="shape"/>
</filter>
<radialGradient id="paint0_radial_504_11" cx="0" cy="0" r="1" gradientUnits="userSpaceOnUse" gradientTransform="translate(511.75 278.709) scale(289.838 293.519)">
<stop stop-color="#9FC9EB"/>
<stop offset="0.5" stop-color="#76ACDC"/>
<stop offset="1" stop-color="#0073BC"/>
</radialGradient>
</defs>
</svg>
